<svg width="25" height="24" viewBox="0 0 25 24" fill="none" xmlns="http://www.w3.org/2000/svg">
<g clip-path="url(#clip0_1917_43457)">
<path d="M23.9328 12.2765C23.9328 11.4608 23.8666 10.6406 23.7255 9.83813H12.4067V14.4591H18.8885C18.6195 15.9495 17.7553 17.2679 16.4898 18.1056V21.104H20.3568C22.6276 19.014 23.9328 15.9274 23.9328 12.2765Z" fill="#4285F4"/>
<path d="M12.4066 24.0008C15.6431 24.0008 18.3724 22.9382 20.361 21.1039L16.4941 18.1055C15.4182 18.8375 14.0292 19.252 12.411 19.252C9.28039 19.252 6.62597 17.1399 5.67355 14.3003H1.68311V17.3912C3.72022 21.4434 7.8694 24.0008 12.4066 24.0008Z" fill="#34A853"/>
<path d="M5.66928 14.3002C5.16661 12.8099 5.16661 11.196 5.66928 9.70569V6.61475H1.68324C-0.0187624 10.0055 -0.0187624 14.0004 1.68324 17.3912L5.66928 14.3002Z" fill="#FBBC04"/>
<path d="M12.4066 4.74966C14.1174 4.7232 15.7709 5.36697 17.0099 6.54867L20.436 3.12262C18.2666 1.0855 15.3873 -0.034466 12.4066 0.000808666C7.8694 0.000808666 3.72022 2.55822 1.68311 6.61481L5.66914 9.70575C6.61715 6.86173 9.27598 4.74966 12.4066 4.74966Z" fill="#EA4335"/>
</g>
<defs>
<clipPath id="clip0_1917_43457">
<rect width="24" height="24" fill="white" transform="translate(0.166748)"/>
</clipPath>
</defs>
</svg>
