<svg width="20" height="20" viewBox="0 0 20 20" fill="none" xmlns="http://www.w3.org/2000/svg">
<path fill-rule="evenodd" clip-rule="evenodd" d="M7.5915 13.2068C11.2805 13.2068 14.4335 13.7658 14.4335 15.9988C14.4335 18.2318 11.3015 18.8068 7.5915 18.8068C3.9015 18.8068 0.749496 18.2528 0.749496 16.0188C0.749496 13.7848 3.8805 13.2068 7.5915 13.2068Z" stroke="#130F26" stroke-width="1.5" stroke-linecap="round" stroke-linejoin="round"/>
<path fill-rule="evenodd" clip-rule="evenodd" d="M7.59149 10.0198C5.16949 10.0198 3.20549 8.05676 3.20549 5.63476C3.20549 3.21276 5.16949 1.24976 7.59149 1.24976C10.0125 1.24976 11.9765 3.21276 11.9765 5.63476C11.9855 8.04776 10.0355 10.0108 7.62249 10.0198H7.59149Z" stroke="#130F26" stroke-width="1.5" stroke-linecap="round" stroke-linejoin="round"/>
<path d="M14.4831 8.88153C16.0841 8.65653 17.3171 7.28253 17.3201 5.61953C17.3201 3.98053 16.1251 2.62053 14.5581 2.36353" stroke="#130F26" stroke-width="1.5" stroke-linecap="round" stroke-linejoin="round"/>
<path d="M16.5954 12.7322C18.1464 12.9632 19.2294 13.5072 19.2294 14.6272C19.2294 15.3982 18.7194 15.8982 17.8954 16.2112" stroke="#130F26" stroke-width="1.5" stroke-linecap="round" stroke-linejoin="round"/>
</svg>
