<svg width="19" height="15" viewBox="0 0 19 15" fill="none" xmlns="http://www.w3.org/2000/svg">
<path d="M18.3451 2.08492C17.6874 2.37175 16.9919 2.56237 16.2799 2.65092C17.0302 2.2058 17.5912 1.50096 17.8566 0.669909C17.1541 1.08659 16.3854 1.38001 15.5839 1.53749C15.0924 1.01277 14.4546 0.647967 13.7531 0.490487C13.0516 0.333006 12.319 0.390124 11.6505 0.65442C10.9819 0.918716 10.4082 1.37797 10.0041 1.97252C9.59989 2.56707 9.38387 3.26944 9.38406 3.98836C9.38406 4.27245 9.4081 4.54562 9.4671 4.80567C8.04125 4.73577 6.64621 4.36571 5.37319 3.71969C4.10016 3.07367 2.97782 2.16623 2.07954 1.05672C1.61933 1.84547 1.47705 2.77998 1.68168 3.66995C1.88631 4.55993 2.42246 5.33845 3.18096 5.84699C2.61359 5.83178 2.05821 5.68038 1.56162 5.40555V5.44489C1.56257 6.27251 1.84862 7.07454 2.37163 7.71596C2.89464 8.35739 3.62267 8.79904 4.43316 8.96657C4.12654 9.04738 3.81054 9.08706 3.49346 9.08458C3.26573 9.08863 3.03824 9.06811 2.81491 9.02339C3.04649 9.73475 3.4929 10.3568 4.09267 10.804C4.69245 11.2511 5.41608 11.5013 6.16395 11.5201C4.89529 12.5123 3.33062 13.0506 1.72005 13.0488C1.42612 13.0488 1.14421 13.0357 0.862305 12.9996C2.50118 14.0557 4.41095 14.6144 6.36063 14.608C12.956 14.608 16.5618 9.14468 16.5618 4.40903C16.5618 4.2506 16.5564 4.09762 16.5487 3.94574C17.2556 3.43982 17.8644 2.80923 18.3451 2.08492Z" fill="#03A9F4"/>
</svg>
